<?xml version="1.0" encoding="UTF-8" standalone="no"?>
<svg
   width="95.336609"
   height="87.398857"
   viewBox="0 0 95.336609 87.398857"
   fill="none"
   version="1.1"
   id="svg12"
   sodipodi:docname="Trivium_white.svg"
   inkscape:export-filename="Trivium_color_square.png"
   inkscape:export-xdpi="96"
   inkscape:export-ydpi="96"
   xmlns:inkscape="http://www.inkscape.org/namespaces/inkscape"
   xmlns:sodipodi="http://sodipodi.sourceforge.net/DTD/sodipodi-0.dtd"
   xmlns:xlink="http://www.w3.org/1999/xlink"
   xmlns="http://www.w3.org/2000/svg"
   xmlns:svg="http://www.w3.org/2000/svg">
  <defs
     id="defs16">
    <linearGradient
       inkscape:collect="always"
       id="linearGradient1111">
      <stop
         style="stop-color:#5ca2f3;stop-opacity:1;"
         offset="0"
         id="stop1107" />
      <stop
         style="stop-color:#c374e1;stop-opacity:1;"
         offset="1"
         id="stop1109" />
    </linearGradient>
    <linearGradient
       inkscape:collect="always"
       xlink:href="#linearGradient1111"
       id="linearGradient1113"
       x1="5.0465941"
       y1="6.1170816"
       x2="77.075264"
       y2="54.1362"
       gradientUnits="userSpaceOnUse"
       gradientTransform="translate(-7.6927361e-4,4.2031892e-4)" />
  </defs>
  <sodipodi:namedview
     id="namedview14"
     pagecolor="#ffffff"
     bordercolor="#000000"
     borderopacity="0.25"
     inkscape:showpageshadow="2"
     inkscape:pageopacity="0"
     inkscape:pagecheckerboard="0"
     inkscape:deskcolor="#d1d1d1"
     showgrid="false" />
  <path
     id="path10"
     style="color:#000000;fill:url(#linearGradient1113);fill-opacity:1;-inkscape-stroke:none"
     d="M 40.932825,4.2031892e-4 40.993375,6.5004203 c -0.1226,0.00114 2.508333,0.6764705 5.074218,2.3730469 2.565886,1.6965758 5.459664,4.2316878 7.775391,7.3027338 4.631455,6.142093 7.182334,13.858329 1.677734,23.392578 l 5.628907,3.25 C 67.932809,31.06995 64.704444,19.786136 59.032434,12.264092 56.196429,8.5030702 52.808143,5.5387307 49.651575,3.4515922 46.495007,1.3644536 43.963871,-0.02776989 40.932825,4.2031892e-4 Z M 39.815637,39.568779 l -5.628906,3.25 c 6.585755,11.406772 17.90914,14.304232 27.287109,13.382813 4.688985,-0.46071 8.989352,-1.770338 12.419922,-3.339844 3.43057,-1.569506 5.953827,-2.942703 7.513672,-5.609375 l -5.611328,-3.28125 c 0.105947,-0.181124 -1.815783,1.704171 -4.605469,2.980469 -2.789686,1.276298 -6.485906,2.401435 -10.351562,2.78125 C 53.107762,50.492471 45.08487,48.695287 39.815637,39.568779 Z m 8.15625,-19.759765 c -13.444529,0 -21.57239,8.639094 -25.289062,17.46289 -1.858337,4.411899 -2.768039,8.903965 -3.033203,12.742188 -0.265164,3.838223 -0.253112,6.751973 1.277343,9.410156 l 5.634766,-3.242187 c 0.07326,0.127236 -0.645395,-2.568133 -0.427734,-5.71875 0.21766,-3.150618 1.005402,-7.026888 2.539062,-10.667969 3.067321,-7.282163 8.507782,-13.486328 19.298828,-13.486328 z M 47.6672,50.691826 c 8.489049,0 15.441406,-6.952357 15.441406,-15.441406 0,-8.489049 -6.952357,-15.441406 -15.441406,-15.441406 -8.48905,0 -15.439453,6.952357 -15.439453,15.441406 0,8.489049 6.950403,15.441406 15.439453,15.441406 z m 0,-6.5 c -4.976192,0 -8.939453,-3.965214 -8.939453,-8.941406 0,-4.976192 3.963261,-8.941406 8.939453,-8.941406 4.976192,0 8.941406,3.965214 8.941406,8.941406 0,4.976192 -3.965214,8.941406 -8.941406,8.941406 z M 18.22384,4.2031892e-4 C 4.3313676,4.2031892e-4 -4.5270764,15.344193 2.4191526,27.37542 l 29.4433594,51 c 6.946239,12.031245 24.665089,12.031245 31.611328,0 l 29.44336,-51 C 99.864021,15.344209 91.005065,4.2031892e-4 77.112512,4.2031892e-4 Z m 0,6.49999998108 h 58.888672 c 9.201625,0 14.776949,9.6562307 10.175781,17.6249997 l -29.445312,51 c -4.600749,7.968735 -15.750813,7.968735 -20.351563,0 l -29.4433592,-51 C 3.4472994,16.156667 9.0223362,6.5004203 18.22384,6.5004203 Z" />
</svg>
